{"title":"The.Help.2011.Cam.x264.Feel-Free","uid":6606994,"size":1532032314,"categoryP":"video","categoryS":"movies","magnet":"?xt=urn:btih:943e5f52c90768826c429cbfe16291c41cbb544a&amp;dn=The.Help.2011.Cam.x264.Feel-Free&amp;tr=udp%3A%2F%2Ftracker.openbittorrent.com%3A80&amp;tr=udp%3A%2F%2Fopen.demonii.com%3A1337&amp;tr=udp%3A%2F%2Ftracker.coppersurfer.tk%3A6969&amp;tr=udp%3A%2F%2Fexodus.desync.com%3A6969","seeders":9,"leechers":2,"uploader":".BONE.","files":10,"time":1313438707,"description":"Genre:Drama\nLanguage:English\n &lt;a href=&quot;\nhttp://www.imdb.com/title/tt1454029/&quot; rel=&quot;nofollow&quot; target=&quot;_NEW&quot;&gt;\nhttp://www.imdb.com/title/tt1454029/&lt;/a&gt;\n\nSource:ERDNA/IMAGINE Thanks!\n\nFormat : MPEG-4\nFormat profile : Base Media\nCodec ID : isom\nFile size : 1.43 GiB\nDuration : 2h 18mn\nOverall bit rate : 1 472 Kbps\n\nVideo\nID : 1\nFormat : AVC\nFormat/Info : Advanced Video Codec\nFormat profile : &lt;a class=&quot;__cf_email__&quot; href=&quot;/cdn-cgi/l/email-protection&quot; data-cfemail=&quot;4008292728000c746e71&quot;&gt;[email&amp;#160;protected]&lt;/a&gt;&lt;script cf-hash='f9e31' type=&quot;text/javascript&quot;&gt;\n/* &lt;![CDATA[ */!function(){try{var t=&quot;currentScript&quot;in document?document.currentScript:function(){for(var t=document.getElementsByTagName(&quot;script&quot;),e=t.length;e--;)if(t[e].getAttribute(&quot;cf-hash&quot;))return t[e]}();if(t&amp;&amp;t.previousSibling){var e,r,n,i,c=t.previousSibling,a=c.getAttribute(&quot;data-cfemail&quot;);if(a){for(e=&quot;&quot;,r=parseInt(a.substr(0,2),16),n=2;a.length-n;n+=2)i=parseInt(a.substr(n,2),16)^r,e+=String.fromCharCode(i);e=document.createTextNode(e),c.parentNode.replaceChild(e,c)}}}catch(u){}}();/* ]]&gt; */&lt;/script&gt;\nFormat settings, CABAC : Yes\nFormat settings, ReFrames : 3 frames\nCodec ID : avc1\nCodec ID/Info : Advanced Video Coding\nDuration : 2h 18mn\nBit rate mode : Variable\nBit rate : 1 241 Kbps\nMaximum bit rate : 6 512 Kbps\nWidth : 640 pixels\nHeight : 336 pixels\nDisplay aspect ratio : 1.905\nFrame rate mode : Constant\nFrame rate : 29.970 fps\nColor space : YUV\nChroma subsampling : 4:2:0\nBit depth : 8 bits\nScan type : Progressive\nBits/(Pixel*Frame) : 0.193\nStream size : 1.20 GiB (85%)\nWriting library : x264\n\nAudio\nID : 2\nFormat : AAC\nFormat/Info : Advanced Audio Codec\nFormat version : Version 4\nFormat profile : LC\nFormat settings, SBR : No\nCodec ID : 40\nDuration : 2h 18mn\nBit rate mode : Variable\nBit rate : 224 Kbps\nMaximum bit rate : 253 Kbps\nChannel(s) : 2 channels\nChannel positions : Front: L R\nSampling rate : 48.0 KHz\nStream size : 222 MiB (15%)\n\n\nPlot:\nA look at what happens when a southern town's unspoken code of rules and behavior is shattered by three courageous women who strike up an unlikely friendship\n &lt;a href=&quot;\nhttp://www.pix2links.com/images/98680752224618667333.png&quot; rel=&quot;nofollow&quot; target=&quot;_NEW&quot;&gt;\nhttp://www.pix2links.com/images/98680752224618667333.png&lt;/a&gt;\n &lt;a href=&quot;\nhttp://www.pix2links.com/images/77793256508059333593.png&quot; rel=&quot;nofollow&quot; target=&quot;_NEW&quot;&gt;\nhttp://www.pix2links.com/images/77793256508059333593.png&lt;/a&gt;\n &lt;a href=&quot;\nhttp://www.pix2links.com/images/24226395743340289876.png&quot; rel=&quot;nofollow&quot; target=&quot;_NEW&quot;&gt;\nhttp://www.pix2links.com/images/24226395743340289876.png&lt;/a&gt;\n &lt;a href=&quot;\nhttp://www.pix2links.com/images/27801459644781288270.png&quot; rel=&quot;nofollow&quot; target=&quot;_NEW&quot;&gt;\nhttp://www.pix2links.com/images/27801459644781288270.png&lt;/a&gt;\n &lt;a href=&quot;\nhttp://www.pix2links.com/images/98165607182319551026.png&quot; rel=&quot;nofollow&quot; target=&quot;_NEW&quot;&gt;\nhttp://www.pix2links.com/images/98165607182319551026.png&lt;/a&gt;\n &lt;a href=&quot;\nhttp://www.pix2links.com/images/38216212915340714903.png&quot; rel=&quot;nofollow&quot; target=&quot;_NEW&quot;&gt;\nhttp://www.pix2links.com/images/38216212915340714903.png&lt;/a&gt;","torrent":{"xt":"urn:btih:943e5f52c90768826c429cbfe16291c41cbb544a","amp;dn":"The.Help.2011.Cam.x264.Feel-Free","amp;tr":["udp%3A%2F%2Ftracker.openbittorrent.com%3A80","udp%3A%2F%2Fopen.demonii.com%3A1337","udp%3A%2F%2Ftracker.coppersurfer.tk%3A6969","udp%3A%2F%2Fexodus.desync.com%3A6969"],"infoHash":"943e5f52c90768826c429cbfe16291c41cbb544a","infoHashBuffer":{"type":"Buffer","data":[148,62,95,82,201,7,104,130,108,66,156,191,225,98,145,196,28,187,84,74]},"announce":[],"urlList":[]}}